<?xml version="1.0" encoding="utf-8"?>
<!-- Generator: Adobe Illustrator 23.0.3, SVG Export Plug-In . SVG Version: 6.00 Build 0)  -->
<svg version="1.1" id="Layer_1" xmlns="http://www.w3.org/2000/svg" xmlns:xlink="http://www.w3.org/1999/xlink" x="0px" y="0px" width="20" height="20"
	 viewBox="0 0 200 122" style="enable-background:new 0 0 200 122;" xml:space="preserve">
<style type="text/css">
	.st0{fill:#fff;}  
</style>
<g>
	<path class="st0" d="M162.3,61.7l2,1.1l12.8,7.2l1.8,1c3.6,1.7,7.3,2.7,11,2.7c2.8,0,5.5-0.5,8.1-1.4c-0.7,1.3-1.5,2.6-2.4,3.7
		c-3.2,3.8-8,6.2-13.4,6.2c-2.1,0-4-0.3-5.8-1l-2.5-1.1l-14.3-8l-2.1-1.2c-7-3.8-14.9-5.9-23.4-5.9c-6.1,0-11.9,1.1-17.2,3.1
		c-3.3,1.2-6.4,2.8-9.3,4.7C101,76.8,95.6,82.4,91.6,89l-1.7,2.9l29.5,16.9c3.3,1.7,7.1,2.7,11.1,2.7c2.8,0,5.5-0.5,8.1-1.4
		c-0.7,1.3-1.5,2.6-2.4,3.7c-3.2,3.8-8,6.2-13.4,6.2c-2.8,0-5.5-0.7-7.9-1.9L30.7,70c-3.6-1.9-6.8-3.2-10.1-4.1
		c-6-1.7-12.4-2.2-18.6-1.6c1.4-0.7,2.9-1.3,4.4-1.9c5.9-2.2,12.2-3,18.4-2.6c3.2,0.2,6.3,0.8,9.4,1.6c3.1,0.9,6.1,2.1,8.9,3.7
		l37.8,21.6l1.7-2.8c5.3-9,12.9-16.5,21.9-21.6c2.6-1.5,5.3-2.8,8.1-3.8c2.4-1,5-1.7,7.6-2.3c4.4-1.1,9.1-1.6,13.8-1.6
		c4.7,0,9.3,0.6,13.7,1.6c1.5,0.4,3,0.8,4.5,1.3"/>
	<path class="st0" d="M36.6,53.3c0.7,0.2,1.5,0.5,2.2,0.7c7.5-7.9,18.1-12.8,29.8-12.8c12.4,0,23.5,5.5,31,14.1
		c0.2-0.1,0.4-0.3,0.6-0.4c2.6-1.5,5.3-2.7,8-3.8C99,39.3,84.7,31.8,68.6,31.8c-16.3,0-30.9,7.8-40.1,19.8
		C31.2,51.9,33.9,52.5,36.6,53.3z"/>
	<polygon class="st0" points="16,23.2 29.3,36.5 22.3,43.4 9.1,30.2 	"/>
	<polygon class="st0" points="49.7,25.2 40.6,28.9 33.7,11.4 41.3,8.3 42.8,7.8 43.5,9.6 	"/>
	
		<rect x="108.7" y="28.4" transform="matrix(0.7071 -0.7071 0.7071 0.7071 11.0057 93.2395)" class="st0" width="18.8" height="9.8"/>
	<path class="st0" d="M103.5,11.4l-4.2,10.5l-2.8,6.9l-9.1-3.6l3.3-8.2l3.7-9.2L103.5,11.4z M65.5,22.1h-1.8v-1V3.4h9.8v18.8H65.5z"
		/>
</g>
</svg>
